<svg xmlns="http://www.w3.org/2000/svg" width="542" height="240" font-family="Tahoma, MS Shell Dlg, sans-serif" font-size="11">
  <defs>
    <style>
      .title-bar { fill: #0078d4; }
      .title-text { fill: white; font-size: 11px; font-weight: bold; }
      .dialog-bg { fill: #f0f0f0; stroke: #999; stroke-width: 1; }
      .label { fill: #000; font-size: 11px; }
      .edit-box { fill: #fff; stroke: #7a7a7a; stroke-width: 1; }
      .combo-box { fill: #fff; stroke: #7a7a7a; stroke-width: 1; }
      .button { fill: #e1e1e1; stroke: #adadad; stroke-width: 1; }
      .button-default { fill: #0078d4; stroke: #005a9e; stroke-width: 1; }
      .button-text { fill: #000; font-size: 11px; text-anchor: middle; }
      .button-text-default { fill: #fff; font-size: 11px; text-anchor: middle; }
      .checkbox { fill: #fff; stroke: #7a7a7a; stroke-width: 1; }
    </style>
  </defs>
  <rect class="title-bar" x="0" y="0" width="542" height="22" rx="4"/>
  <text class="title-text" x="8" y="15">Receive file</text>
  <rect class="dialog-bg" x="0" y="22" width="542" height="218"/>
  <text class="label" x="16" y="46">Filename:</text>
  <rect class="combo-box" x="16" y="54" width="440" height="20"/>
  <rect fill="#e1e1e1" x="436" y="54" width="20" height="20" stroke="#7a7a7a" stroke-width="1"/>
  <rect class="button" x="470" y="54" width="56" height="20" rx="2"/>
  <text class="button-text" x="498" y="68">Browse</text>
  <rect class="checkbox" x="16" y="86" width="13" height="13"/>
  <text class="label" x="34" y="97">Binary</text>
  <text class="label" x="16" y="124">Auto-stop wait time (sec):</text>
  <rect class="edit-box" x="200" y="112" width="60" height="20"/>
  <text class="label" x="206" y="126">0</text>
  <rect class="button-default" x="160" y="200" width="64" height="24" rx="3"/>
  <text class="button-text-default" x="192" y="216">OK</text>
  <rect class="button" x="240" y="200" width="80" height="24" rx="3"/>
  <text class="button-text" x="280" y="216">Cancel</text>
  <rect class="button" x="336" y="200" width="72" height="24" rx="3"/>
  <text class="button-text" x="372" y="216">Help</text>
</svg>
